<svg width="960" height="960" viewBox="0 0 960 960" fill="none" xmlns="http://www.w3.org/2000/svg">
  <defs>
    <linearGradient id="bg" x1="120" y1="80" x2="860" y2="860" gradientUnits="userSpaceOnUse">
      <stop stop-color="#182848"/>
      <stop offset="1" stop-color="#4B6CB7"/>
    </linearGradient>
    <linearGradient id="panel" x1="180" y1="180" x2="780" y2="780" gradientUnits="userSpaceOnUse">
      <stop stop-color="#FFFFFF" stop-opacity="0.18"/>
      <stop offset="1" stop-color="#FFFFFF" stop-opacity="0.04"/>
    </linearGradient>
  </defs>
  <rect width="960" height="960" rx="120" fill="url(#bg)"/>
  <rect x="120" y="120" width="720" height="720" rx="72" fill="url(#panel)" stroke="#FFFFFF" stroke-opacity="0.18" stroke-width="2"/>
  <g opacity="0.95">
    <rect x="220" y="240" width="72" height="72" rx="18" fill="#FF6B6B"/>
    <rect x="308" y="240" width="72" height="72" rx="18" fill="#FFD166"/>
    <rect x="396" y="240" width="72" height="72" rx="18" fill="#06D6A0"/>
    <rect x="484" y="240" width="72" height="72" rx="18" fill="#4CC9F0"/>
    <rect x="572" y="240" width="72" height="72" rx="18" fill="#B388FF"/>
    <rect x="660" y="240" width="72" height="72" rx="18" fill="#F8F9FA"/>
    <rect x="220" y="328" width="72" height="72" rx="18" fill="#4CC9F0"/>
    <rect x="308" y="328" width="72" height="72" rx="18" fill="#06D6A0"/>
    <rect x="396" y="328" width="72" height="72" rx="18" fill="#FFD166"/>
    <rect x="484" y="328" width="72" height="72" rx="18" fill="#FF6B6B"/>
    <rect x="572" y="328" width="72" height="72" rx="18" fill="#1A1A1A"/>
    <rect x="660" y="328" width="72" height="72" rx="18" fill="#4CC9F0"/>
    <rect x="220" y="416" width="72" height="72" rx="18" fill="#FFD166"/>
    <rect x="308" y="416" width="72" height="72" rx="18" fill="#FF6B6B"/>
    <rect x="396" y="416" width="72" height="72" rx="18" fill="#F8F9FA"/>
    <rect x="484" y="416" width="72" height="72" rx="18" fill="#06D6A0"/>
    <rect x="572" y="416" width="72" height="72" rx="18" fill="#FFD166"/>
    <rect x="660" y="416" width="72" height="72" rx="18" fill="#B388FF"/>
  </g>
  <rect x="200" y="574" width="560" height="140" rx="36" fill="#0A1024" fill-opacity="0.7" stroke="#FFFFFF" stroke-opacity="0.12" stroke-width="2"/>
  <text x="480" y="636" fill="#FFFFFF" font-family="Arial, Helvetica, sans-serif" font-size="72" font-weight="700" text-anchor="middle">PIXEL FLOW</text>
  <text x="480" y="684" fill="#D9E5FF" font-family="Arial, Helvetica, sans-serif" font-size="28" font-weight="600" text-anchor="middle">Image Driven Puzzle Game Template</text>
</svg>
